/* XPM */
static char *_71e33c232024187f9304c6c59222d22SRS9whQnGSDO1kBi[] = {
/* columns rows colors chars-per-pixel */
"32 32 27 1 ",
"  c #2C1937",
". c #311C3D",
"X c #2E2235",
"o c #33273A",
"O c #362042",
"+ c #382B40",
"@ c #3D2E46",
"# c #3B2248",
"$ c #3D244B",
"% c #40264D",
"& c #413546",
"* c #43334C",
"= c #45354E",
"- c #473C4D",
"; c #473751",
": c #4E4155",
"> c #55465B",
", c #5B4D63",
"< c #5F4F67",
"1 c #5B4B6E",
"2 c #62526A",
"3 c #635275",
"4 c #6D5A7D",
"5 c #766284",
"6 c #7E698B",
"7 c #836C90",
"8 c #877193",
/* pixels */
"%%%%%%%%%%%%%%%%%%%%%%%%%%%%%;8%",
"888%888888%888888%2222222%88888%",
"222%222222%222222%2222222%22288%",
";;;%222222%;;;;;;%2222222%;;;;8%",
"%%%%%%%%%%%%%%%%%%%%%%%%%%%%%;%%",
"2222222%888888%888888%222222%88%",
"2222222%222222%222222%222222%28%",
";;;;;;;%222222%222222%222222%;8%",
"%%%%%%%%%%%%%%%%%%%%%%%%%%%%%;%%",
"888%888888%222222%2222222%88888%",
"222%222222%222222%2222222%22288%",
";;;%222222%;;;;;;%2222222%;;;;8%",
"%%%%%%%%%%%%%%%%%%%%%%%%%%%%%;%%",
"8888888%222222%888888%222222%88%",
"<<<<<<<$<<<<<<$<<<<<<$<<<<<<$<7$",
"=======$<<<<<<$<<<<<<$<<<<<<$=7$",
"$$$$$$$$$$$$$$$$$$$$$$$$$$$$$=$$",
",,,#666666#,,,,,,#6666666#,6666#",
",,,#,,,,,,#,,,,,,#,,,,,,,#,,,66#",
",,,#******#,,,,,,#*******#,,,,6#",
"OOOOOOOOOOOOOOOOOOOOOOOOOOOOO@OO",
"5555555O555555O555555O>>>>>>O55O",
"5>>>>>>O>>>>>>O>>>>>>O>>>>>>O55O",
"4::::::.::::::.++++++.::::::.:4.",
".............................+..",
":::.444444.::::::.4444444.44444.",
"--- ------ ------ ------- ---33 ",
"ooo oooooo ------ ooooooo ooo-3 ",
"                             o  ",
"X111111X111111X111111X1111111111",
"X&&&&&&X&&&&&&X&&&&&&X&&&&&&&&&1",
"XXXXXXXXXXXXXXXXXXXXXXXXXXXXXXX1"
};
