/* XPM */
static char *_8de653197c14038d66a5c789f074f99Oqg8XiJUChWVohg7[] = {
/* columns rows colors chars-per-pixel */
"32 32 13 1 ",
"  c None",
". c black",
"X c #4D361B",
"o c #5D4324",
"O c #694D2A",
"+ c #7A5C37",
"@ c #9F7324",
"# c #C89745",
"$ c #DDAE5E",
"% c #ECB048",
"& c #F7B84A",
"* c #F8BE5E",
"= c #FFCA61",
/* pixels */
"                                ",
"                                ",
"                                ",
"                                ",
"                                ",
"                                ",
"      &&&&&&&&&&=========       ",
"     &###################=      ",
"    @##XXXXXXXXXXXXXXXXX##=     ",
"   @##X+++++++XXX+++++++X##@    ",
"  @##XoOOOoOOX***XOOoOOOoX==@   ",
"  @#XOoOOOoOX*%%%*XOoOOOoOX=@   ",
"  @#XXXXXXXXX*%.%*XXXXXXXXX=@   ",
"  @##########*%.%*##########@   ",
"   @@@@@@@@@@*%.%*@@@@@@@@@@    ",
"   @$$$######*%.%*#####$$$$@    ",
"   @$XXXXXXXX*%%%*XXXXXXXX$@    ",
"   @#XOOoOOoOX***XOoOOoOOX$@    ",
"   @#XOOoOOoOOXXXOOoOOoOOX$@    ",
"   @#XOOoOOoOOOoOOOoOOoOOX#@    ",
"   @#XOOoOOoOOOoOOOoOOoOOX#@    ",
"   @$XXXXXXXXXXXXXXXXXXXXX$@    ",
"   @$$###################$$@    ",
"  @@@@@@@@@@@@@@@@@@@@@@@@@@@   ",
"  @*************************@   ",
"  @@@@@@@@@@@@@@@@@@@@@@@@@@@   ",
"                                ",
"                                ",
"                                ",
"                                ",
"                                ",
"                                "
};
