/* XPM */
static char *_a6f40aa90cf46c8d8f9cd392038d95aqLbEcyQtxNy2uKuF[] = {
/* columns rows colors chars-per-pixel */
"32 32 9 1 ",
"  c None",
". c #1C4B3A",
"X c #322C43",
"o c #8A5E34",
"O c #258533",
"+ c #79D63F",
"@ c #CC9F61",
"# c #F7E3B0",
"$ c white",
/* pixels */
"                                ",
"                                ",
"                                ",
"                                ",
"                                ",
"                                ",
"                                ",
"                                ",
"                 ....           ",
"          ....  .####.          ",
"         .OOOO. ###$$#O.        ",
"        .#X$##..#XX$$#O+.       ",
"        .@XX@@..@XXX@@.OO       ",
"        .O@@@.O.@@@@@@...       ",
"         ....OOO.@@@@.....      ",
"      ....OOOOOOOOOOOO.......   ",
"     .OO..O####$$$#OOO....++OX  ",
"    .OOO.O@@@@@@@@@@@....O++OX  ",
"    .OOO.@o@@@@@@@@@o@...OOO.X  ",
"    X....oo@@@@@@@@@ooO.OO..X   ",
"     XX..oo@@@@@@@@@ooO.O..X    ",
"       X.ooo@@@@@@@oooO...X     ",
"        XXoooooooooooO...X      ",
"     XXXXXX.ooooooooo...XXX     ",
"    XO.XO..XXXXXXXXXX.O+XO+X    ",
"    X.....XX.OOXOO..XXOO.OOX    ",
"     XXXXXXX..OXO..XXXXXXXX     ",
"                                ",
"                                ",
"                                ",
"                                ",
"                                "
};
